<svg xmlns="http://www.w3.org/2000/svg" viewBox="0 0 64 64">
  <defs>
    <filter id="soft" x="-20%" y="-20%" width="140%" height="140%">
      <feDropShadow dx="0" dy="1" stdDeviation="0.8" flood-color="#6d5a4d" flood-opacity="0.25"/>
    </filter>
  </defs>
  <rect x="0" y="0" width="64" height="64" rx="14" fill="#f7f2e7"/>
  <g transform="translate(0,2)" filter="url(#soft)" fill="none" stroke-linecap="round" stroke-linejoin="round">
    <path d="M32 55 Q30 39 31 24" stroke="#6f5d4f" stroke-opacity="0.7" stroke-width="2.6"/>
    <path d="M31 40 Q23 36 21 30 M31 45 Q39 41 42 34" stroke="#7a6a58" stroke-opacity="0.55" stroke-width="1.8"/>
    <path d="M32 9 C22 7 14 15 18 25 C12 29 14 39 24 42 C28 46 36 46 40 42 C50 39 52 29 46 25 C50 15 42 7 32 9 Z"
          fill="#d98692" fill-opacity="0.72" stroke="#8d5f66" stroke-opacity="0.8" stroke-width="1.6"/>
    <path d="M32 15 C26 14 20 19 22 27 C18 30 20 37 28 38 C30 41 34 41 36 38 C44 37 46 30 42 27 C44 19 38 14 32 15 Z"
          fill="#efb0ba" fill-opacity="0.68" stroke="#9d6a73" stroke-opacity="0.75" stroke-width="1.2"/>
    <circle cx="32" cy="27.5" r="4.8" fill="#8b5450" fill-opacity="0.62" stroke="#70423f" stroke-opacity="0.72" stroke-width="0.9"/>
  </g>
</svg>
