<svg xmlns="http://www.w3.org/2000/svg" width="1024" height="1024" viewBox="0 0 1024 1024" fill="none">
  <title>Hand-drawn wrench (transparent)</title>
  <defs>
    <!-- {�����a��K� -->
    <filter id="pencilWobble" x="-10%" y="-10%" width="120%" height="120%" color-interpolation-filters="sRGB">
      <feTurbulence type="fractalNoise" baseFrequency="0.9" numOctaves="2" seed="8" result="noise"/>
      <feDisplacementMap in="SourceGraphic" in2="noise" scale="2.2" xChannelSelector="R" yChannelSelector="G"/>
    </filter>

    <!-- �Ƅ�a��(���ӄ -->
    <filter id="pencilWobbleFine" x="-10%" y="-10%" width="120%" height="120%" color-interpolation-filters="sRGB">
      <feTurbulence type="fractalNoise" baseFrequency="1.3" numOctaves="1" seed="11" result="noise"/>
      <feDisplacementMap in="SourceGraphic" in2="noise" scale="1.3" xChannelSelector="R" yChannelSelector="G"/>
    </filter>

    <!-- ��iłr� -->
    <linearGradient id="warmFill" x1="240" y1="260" x2="760" y2="820" gradientUnits="userSpaceOnUse">
      <stop offset="0" stop-color="#E7B69A" stop-opacity="0.34"/>
      <stop offset="0.55" stop-color="#D89A78" stop-opacity="0.26"/>
      <stop offset="1" stop-color="#C98264" stop-opacity="0.22"/>
    </linearGradient>

    <linearGradient id="warmFill2" x1="300" y1="300" x2="720" y2="900" gradientUnits="userSpaceOnUse">
      <stop offset="0" stop-color="#EBC2A5" stop-opacity="0.18"/>
      <stop offset="1" stop-color="#C98363" stop-opacity="0.12"/>
    </linearGradient>
  </defs>

  <!-- sK;S�o��6,S -->
  <g transform="translate(512 512) rotate(-28) translate(-512 -512)">
    <!-- Ԍ�iŕr(nӅ	 -->
    <path
      d="M 404 188
         C 336 250, 316 330, 350 392
         C 366 420, 388 446, 410 470
         L 438 500
         C 452 516, 456 538, 446 556
         L 316 782
         C 298 814, 306 854, 336 874
         C 356 888, 382 888, 402 874
         L 610 726
         C 628 714, 652 718, 668 734
         L 696 762
         C 740 806, 820 812, 872 760
         C 924 708, 920 626, 870 578
         L 842 550
         C 826 534, 822 510, 834 492
         L 942 330
         C 954 312, 952 288, 938 272
         C 894 222, 824 214, 768 250
         L 730 274
         C 716 282, 698 280, 686 270
         L 654 244
         C 602 202, 522 206, 470 250
         L 444 272
         C 430 284, 410 286, 394 276
         L 372 262
         C 352 250, 350 222, 368 206
         C 382 194, 394 186, 404 188 Z"
      fill="url(#warmFill)"
      filter="url(#pencilWobble)"
    />

    <!-- n���p��Ϲ!�K�	 -->
    <path
      d="M 404 188
         C 336 250, 316 330, 350 392
         C 366 420, 388 446, 410 470
         L 438 500
         C 452 516, 456 538, 446 556
         L 316 782
         C 298 814, 306 854, 336 874
         C 356 888, 382 888, 402 874
         L 610 726
         C 628 714, 652 718, 668 734
         L 696 762
         C 740 806, 820 812, 872 760
         C 924 708, 920 626, 870 578
         L 842 550
         C 826 534, 822 510, 834 492
         L 942 330
         C 954 312, 952 288, 938 272
         C 894 222, 824 214, 768 250
         L 730 274
         C 716 282, 698 280, 686 270
         L 654 244
         C 602 202, 522 206, 470 250
         L 444 272
         C 430 284, 410 286, 394 276
         L 372 262
         C 352 250, 350 222, 368 206
         C 382 194, 394 186, 404 188 Z"
      stroke="#4B4741"
      stroke-opacity="0.72"
      stroke-width="7.5"
      stroke-linecap="round"
      stroke-linejoin="round"
      filter="url(#pencilWobble)"
    />
    <path
      d="M 404 188
         C 336 250, 316 330, 350 392
         C 366 420, 388 446, 410 470
         L 438 500
         C 452 516, 456 538, 446 556
         L 316 782
         C 298 814, 306 854, 336 874
         C 356 888, 382 888, 402 874
         L 610 726
         C 628 714, 652 718, 668 734
         L 696 762
         C 740 806, 820 812, 872 760
         C 924 708, 920 626, 870 578
         L 842 550
         C 826 534, 822 510, 834 492
         L 942 330
         C 954 312, 952 288, 938 272
         C 894 222, 824 214, 768 250
         L 730 274
         C 716 282, 698 280, 686 270
         L 654 244
         C 602 202, 522 206, 470 250
         L 444 272
         C 430 284, 410 286, 394 276
         L 372 262
         C 352 250, 350 222, 368 206
         C 382 194, 394 186, 404 188 Z"
      stroke="#2F2C28"
      stroke-opacity="0.38"
      stroke-width="3.2"
      stroke-linecap="round"
      stroke-linejoin="round"
      filter="url(#pencilWobbleFine)"
    />

    <!-- ����K�ƿ	 -->
    <path
      d="M 454 534
         C 430 576, 394 640, 364 692
         C 346 724, 358 754, 392 766
         C 428 778, 468 762, 494 742
         L 624 640
         C 650 620, 664 592, 652 568
         C 638 542, 604 538, 568 558
         L 520 586
         C 496 600, 476 588, 488 566
         L 508 530"
      stroke="#4B4741"
      stroke-opacity="0.48"
      stroke-width="5"
      stroke-linecap="round"
      stroke-linejoin="round"
      filter="url(#pencilWobbleFine)"
    />

    <!-- s��m��	 -->
    <path
      d="M 742 712
         C 726 728, 726 754, 744 772
         C 762 790, 790 790, 806 774
         C 822 758, 822 732, 804 714
         C 786 696, 758 696, 742 712 Z"
      fill="url(#warmFill2)"
      filter="url(#pencilWobbleFine)"
    />
    <path
      d="M 756 730
         L 774 720
         L 794 728
         L 800 748
         L 788 766
         L 768 766
         L 756 748 Z"
      stroke="#3E3A34"
      stroke-opacity="0.55"
      stroke-width="4.2"
      stroke-linejoin="round"
      filter="url(#pencilWobbleFine)"
    />

    <!-- {���4q��	 -->
    <path d="M 520 610 C 550 590, 590 578, 620 584" stroke="#6A6258" stroke-opacity="0.22" stroke-width="4" stroke-linecap="round" filter="url(#pencilWobbleFine)"/>
    <path d="M 402 804 C 438 816, 472 808, 500 792" stroke="#6A6258" stroke-opacity="0.2" stroke-width="4" stroke-linecap="round" filter="url(#pencilWobbleFine)"/>

    <!-- ���`ل(	 -->
    <g fill="#7B3D2C" fill-opacity="0.55">
      <circle cx="520" cy="420" r="5"/>
      <circle cx="558" cy="470" r="3.8"/>
      <circle cx="604" cy="560" r="4.2"/>
      <circle cx="470" cy="646" r="3.2"/>
      <circle cx="540" cy="742" r="4.6"/>
    </g>
  </g>
</svg>
